<svg width="22" height="22" viewBox="0 0 22 22" fill="none" xmlns="http://www.w3.org/2000/svg">
<path d="M9.53929 3.01273H2.89762C2.39434 3.01273 1.91167 3.21265 1.5558 3.56853C1.19993 3.9244 1 4.40707 1 4.91035V18.1937C1 18.697 1.19993 19.1796 1.5558 19.5355C1.91167 19.8914 2.39434 20.0913 2.89762 20.0913H16.181C16.6842 20.0913 17.1669 19.8914 17.5228 19.5355C17.8787 19.1796 18.0786 18.697 18.0786 18.1937V11.552" stroke="#567488" stroke-width="2" stroke-linecap="round" stroke-linejoin="round"/>
<path d="M16.6554 1.58952C17.0328 1.21205 17.5448 1 18.0786 1C18.6124 1 19.1244 1.21205 19.5018 1.58952C19.8793 1.96698 20.0913 2.47892 20.0913 3.01273C20.0913 3.54654 19.8793 4.05849 19.5018 4.43595L10.4881 13.4496L6.69287 14.3985L7.64168 10.6032L16.6554 1.58952Z" stroke="#567488" stroke-width="2" stroke-linecap="round" stroke-linejoin="round"/>
</svg>
